<svg xmlns="http://www.w3.org/2000/svg" xmlns:xlink="http://www.w3.org/1999/xlink" width="500" zoomAndPan="magnify" viewBox="0 0 375 374.999991" height="500" preserveAspectRatio="xMidYMid meet" version="1.0"><defs><g/><clipPath id="a7b0f905d2"><path d="M 110.011719 130.328125 L 349.796875 130.328125 L 349.796875 245 L 110.011719 245 Z M 110.011719 130.328125 " clip-rule="nonzero"/></clipPath><clipPath id="a0f421b422"><path d="M 113.011719 130.328125 L 346.324219 130.328125 C 347.980469 130.328125 349.324219 131.671875 349.324219 133.328125 L 349.324219 241.671875 C 349.324219 243.328125 347.980469 244.671875 346.324219 244.671875 L 113.011719 244.671875 C 111.355469 244.671875 110.011719 243.328125 110.011719 241.671875 L 110.011719 133.328125 C 110.011719 131.671875 111.355469 130.328125 113.011719 130.328125 " clip-rule="nonzero"/></clipPath><clipPath id="707a1b49f2"><path d="M 110.011719 130.328125 L 349.261719 130.328125 L 349.261719 244.328125 L 110.011719 244.328125 Z M 110.011719 130.328125 " clip-rule="nonzero"/></clipPath><clipPath id="fe012fee6f"><path d="M 113.011719 130.328125 L 346.261719 130.328125 C 347.917969 130.328125 349.257812 131.667969 349.257812 133.320312 L 349.257812 241.335938 C 349.257812 242.988281 347.917969 244.328125 346.261719 244.328125 L 113.011719 244.328125 C 111.355469 244.328125 110.011719 242.988281 110.011719 241.335938 L 110.011719 133.320312 C 110.011719 131.667969 111.355469 130.328125 113.011719 130.328125 " clip-rule="nonzero"/></clipPath><clipPath id="868b6b7e03"><path d="M 37.5 130.328125 L 121 130.328125 L 121 245 L 37.5 245 Z M 37.5 130.328125 " clip-rule="nonzero"/></clipPath><clipPath id="f871d2d495"><path d="M 41.25 130.328125 L 117.007812 130.328125 C 118.003906 130.328125 118.957031 130.722656 119.660156 131.425781 C 120.363281 132.128906 120.757812 133.082031 120.757812 134.078125 L 120.757812 240.921875 C 120.757812 241.917969 120.363281 242.871094 119.660156 243.574219 C 118.957031 244.277344 118.003906 244.671875 117.007812 244.671875 L 41.25 244.671875 C 40.253906 244.671875 39.300781 244.277344 38.597656 243.574219 C 37.894531 242.871094 37.5 241.917969 37.5 240.921875 L 37.5 134.078125 C 37.5 133.082031 37.894531 132.128906 38.597656 131.425781 C 39.300781 130.722656 40.253906 130.328125 41.25 130.328125 " clip-rule="nonzero"/></clipPath><clipPath id="4eafab5dbf"><path d="M 37.5 130.332031 L 120.75 130.332031 L 120.75 244.328125 L 37.5 244.328125 Z M 37.5 130.332031 " clip-rule="nonzero"/></clipPath><clipPath id="1f35800e8e"><path d="M 41.25 130.332031 L 117 130.332031 C 117.996094 130.332031 118.949219 130.726562 119.652344 131.429688 C 120.355469 132.128906 120.75 133.082031 120.75 134.070312 L 120.75 240.585938 C 120.75 241.578125 120.355469 242.527344 119.652344 243.230469 C 118.949219 243.929688 117.996094 244.324219 117 244.324219 L 41.25 244.324219 C 40.253906 244.324219 39.300781 243.929688 38.597656 243.230469 C 37.894531 242.527344 37.5 241.578125 37.5 240.585938 L 37.5 134.070312 C 37.5 133.082031 37.894531 132.128906 38.597656 131.429688 C 39.300781 130.726562 40.253906 130.332031 41.25 130.332031 " clip-rule="nonzero"/></clipPath><clipPath id="8aabaed5e0"><path d="M 84.464844 222.191406 L 97.984375 222.191406 L 97.984375 235.4375 L 84.464844 235.4375 Z M 84.464844 222.191406 " clip-rule="nonzero"/></clipPath><clipPath id="d96179adb4"><path d="M 51.578125 141.011719 L 110.078125 141.011719 L 110.078125 232.542969 L 51.578125 232.542969 Z M 51.578125 141.011719 " clip-rule="nonzero"/></clipPath></defs><g clip-path="url(#a7b0f905d2)"><g clip-path="url(#a0f421b422)"><path fill="#ffffff" d="M 110.011719 130.328125 L 349.171875 130.328125 L 349.171875 244.601562 L 110.011719 244.601562 Z M 110.011719 130.328125 " fill-opacity="1" fill-rule="nonzero"/></g></g><g clip-path="url(#707a1b49f2)"><g clip-path="url(#fe012fee6f)"><path stroke-linecap="butt" transform="matrix(0.749816, 0, 0, 0.747771, 110.011368, 130.328459)" fill="none" stroke-linejoin="miter" d="M 4.001448 -0.000446182 L 315.07763 -0.000446182 C 317.286504 -0.000446182 319.0734 1.791338 319.0734 4.001031 L 319.0734 148.451217 C 319.0734 150.660909 317.286504 152.452694 315.07763 152.452694 L 4.001448 152.452694 C 1.792574 152.452694 0.000468213 150.660909 0.000468213 148.451217 L 0.000468213 4.001031 C 0.000468213 1.791338 1.792574 -0.000446182 4.001448 -0.000446182 " stroke="#000000" stroke-width="8" stroke-opacity="1" stroke-miterlimit="4"/></g></g><g clip-path="url(#868b6b7e03)"><g clip-path="url(#f871d2d495)"><path fill="#ff3131" d="M 37.5 130.328125 L 120.550781 130.328125 L 120.550781 244.601562 L 37.5 244.601562 Z M 37.5 130.328125 " fill-opacity="1" fill-rule="nonzero"/></g></g><g clip-path="url(#4eafab5dbf)"><g clip-path="url(#1f35800e8e)"><path stroke-linecap="butt" transform="matrix(0.75, 0, 0, 0.747771, 37.500002, 130.333367)" fill="none" stroke-linejoin="miter" d="M 4.999997 -0.00178583 L 105.999997 -0.00178583 C 107.328122 -0.00178583 108.598956 0.525824 109.536456 1.466119 C 110.473956 2.40119 110.999997 3.675812 110.999997 4.997448 L 110.999997 147.441662 C 110.999997 148.768523 110.473956 150.037921 109.536456 150.978216 C 108.598956 151.913287 107.328122 152.440896 105.999997 152.440896 L 4.999997 152.440896 C 3.671872 152.440896 2.401039 151.913287 1.463539 150.978216 C 0.526039 150.037921 -0.00000271667 148.768523 -0.00000271667 147.441662 L -0.00000271667 4.997448 C -0.00000271667 3.675812 0.526039 2.40119 1.463539 1.466119 C 2.401039 0.525824 3.671872 -0.00178583 4.999997 -0.00178583 " stroke="#000000" stroke-width="8" stroke-opacity="1" stroke-miterlimit="4"/></g></g><g clip-path="url(#8aabaed5e0)"><path fill="#ffffff" d="M 84.46875 228.824219 C 84.46875 232.46875 87.496094 235.4375 91.21875 235.4375 C 94.941406 235.4375 97.96875 232.46875 97.96875 228.824219 C 97.96875 225.179688 94.941406 222.210938 91.21875 222.210938 C 87.496094 222.210938 84.46875 225.179688 84.46875 228.824219 Z M 97.0625 226.121094 C 97.058594 226.121094 97.058594 226.117188 97.058594 226.113281 C 97.058594 226.117188 97.058594 226.121094 97.0625 226.121094 Z M 97.351562 226.824219 C 97.359375 226.84375 97.363281 226.867188 97.367188 226.886719 C 97.363281 226.871094 97.355469 226.855469 97.351562 226.835938 Z M 97.53125 227.453125 C 97.519531 227.433594 97.511719 227.417969 97.503906 227.398438 C 97.480469 227.289062 97.453125 227.179688 97.421875 227.070312 C 97.457031 227.199219 97.5 227.324219 97.53125 227.453125 Z M 97.480469 230.394531 C 97.472656 230.421875 97.464844 230.445312 97.457031 230.472656 C 97.460938 230.453125 97.464844 230.433594 97.472656 230.410156 C 97.472656 230.410156 97.476562 230.402344 97.480469 230.394531 Z M 84.773438 229.230469 C 84.777344 229.234375 84.78125 229.238281 84.785156 229.242188 C 84.792969 229.300781 84.792969 229.367188 84.796875 229.425781 C 84.789062 229.359375 84.777344 229.296875 84.773438 229.230469 Z M 85.011719 230.574219 C 85.015625 230.582031 85.015625 230.589844 85.019531 230.597656 C 85.015625 230.589844 85.015625 230.582031 85.011719 230.574219 Z M 84.824219 229.652344 C 84.839844 229.777344 84.859375 229.90625 84.882812 230.027344 C 84.855469 229.90625 84.839844 229.777344 84.824219 229.652344 Z M 84.757812 228.839844 C 84.757812 228.832031 84.757812 228.828125 84.757812 228.824219 C 84.757812 228.410156 84.808594 228.007812 84.886719 227.617188 C 84.808594 228.011719 84.765625 228.421875 84.765625 228.839844 C 84.765625 228.84375 84.765625 228.84375 84.765625 228.84375 C 84.761719 228.84375 84.761719 228.839844 84.757812 228.839844 Z M 85.117188 226.765625 C 85.144531 226.691406 85.167969 226.617188 85.199219 226.542969 C 85.167969 226.617188 85.144531 226.691406 85.117188 226.765625 Z M 84.90625 227.511719 C 84.9375 227.371094 84.972656 227.230469 85.015625 227.09375 C 84.972656 227.230469 84.9375 227.371094 84.90625 227.511719 " fill-opacity="1" fill-rule="nonzero"/></g><g clip-path="url(#d96179adb4)"><path fill="#ffffff" d="M 52.019531 216.898438 C 52.328125 217.828125 52.179688 218.503906 52.179688 220.1875 C 52.179688 221.871094 53.152344 224.414062 53.804688 225.339844 C 54.457031 226.269531 55.84375 227.34375 56.707031 227.023438 C 57.574219 226.707031 57.546875 224.28125 57.558594 223.976562 C 57.574219 223.671875 57.574219 222.707031 57.679688 222.375 C 57.785156 222.042969 57.734375 221.972656 57.746094 221.65625 C 57.761719 221.339844 58.039062 221.101562 58.011719 220.597656 C 57.984375 220.09375 58.199219 219.789062 58.371094 219.21875 C 58.546875 218.648438 58.664062 218.355469 58.890625 218.238281 C 59.117188 218.117188 59.476562 217.839844 59.996094 217.589844 C 60.515625 217.335938 60.195312 217.285156 59.664062 217.257812 C 59.128906 217.230469 59.515625 216.976562 59.570312 216.886719 C 59.625 216.792969 60.566406 216.089844 61.675781 215.625 C 62.777344 215.164062 62.898438 215.070312 64.148438 214.726562 C 65.402344 214.378906 66.761719 213.96875 67.160156 213.851562 C 67.558594 213.730469 69.023438 213.292969 70.25 212.9375 C 71.472656 212.578125 72.046875 212.378906 72.871094 212.390625 C 73.699219 212.40625 75.1875 212.207031 75.1875 212.207031 C 75.1875 212.207031 74.375 213.71875 73.988281 214.898438 C 73.605469 216.078125 73.164062 217.363281 73.125 217.746094 C 73.085938 218.132812 71.742188 219.867188 70.96875 221.523438 C 70.195312 223.179688 69.34375 225.476562 68.929688 226.015625 C 68.519531 226.5625 68.464844 226.679688 68.398438 226.46875 C 68.332031 226.257812 67.945312 226.601562 67.796875 226.839844 C 67.652344 227.078125 67.4375 227.6875 67.160156 228.269531 C 66.878906 228.855469 66.839844 229.476562 66.792969 229.863281 C 66.746094 230.246094 66.71875 230.191406 66.453125 230.804688 C 66.1875 231.414062 67.027344 231.542969 67.570312 231.785156 C 68.117188 232.023438 70.527344 231.945312 71.460938 231.980469 C 72.390625 232.023438 74.683594 232.300781 75.414062 232.417969 C 76.144531 232.539062 79.515625 232.578125 80.660156 232.5 C 81.804688 232.417969 82.179688 231.679688 82.339844 231.1875 C 82.496094 230.695312 81.804688 230.300781 81.566406 230.21875 C 81.324219 230.140625 80.074219 229.808594 79.703125 229.730469 C 79.328125 229.648438 78.542969 229.570312 78.144531 229.398438 C 77.746094 229.226562 77.476562 228.90625 77.105469 228.75 C 76.734375 228.589844 76.386719 228.179688 76.199219 227.820312 C 76.011719 227.460938 75.839844 227.160156 75.414062 226.867188 C 74.988281 226.574219 75.003906 226.734375 74.667969 226.535156 C 74.335938 226.335938 74.800781 226.347656 74.988281 225.871094 C 75.175781 225.394531 74.921875 225.726562 75.132812 225.183594 C 75.347656 224.640625 76.28125 222.597656 76.8125 221.484375 C 77.34375 220.371094 78.425781 219.296875 79.25 218.183594 C 80.074219 217.070312 81.152344 214.726562 81.953125 213.136719 C 82.75 211.542969 83.070312 211.054688 83.644531 210.378906 C 84.214844 209.703125 84.816406 208.894531 85.214844 207.777344 C 85.613281 206.667969 85.507812 205.910156 85.308594 205.15625 C 85.105469 204.402344 84.882812 203.195312 84.894531 201.894531 C 84.90625 200.597656 84.839844 199.511719 84.855469 199.363281 C 84.867188 199.21875 85.160156 198.714844 85.214844 198.4375 C 85.269531 198.15625 85.53125 197.957031 86.039062 197.519531 C 86.546875 197.085938 86.117188 197.085938 86.117188 196.328125 C 86.117188 195.574219 86.144531 195.402344 86.09375 194.207031 C 86.039062 193.015625 85.507812 191.265625 85.441406 190.933594 C 85.375 190.601562 85.585938 190.578125 85.558594 190.40625 C 85.53125 190.230469 85.199219 189.359375 84.800781 188.667969 C 84.402344 187.976562 84.574219 187.527344 84.5625 186.996094 C 84.546875 186.46875 84.335938 185.976562 84.335938 185.566406 C 84.335938 185.15625 83.777344 184.929688 83.445312 184.53125 C 83.109375 184.132812 83.375 183.828125 83.628906 183.113281 C 83.882812 182.398438 83.523438 182.757812 83.21875 181.140625 C 82.910156 179.523438 83.734375 179.457031 83.894531 179.042969 C 84.054688 178.632812 86.011719 175.796875 86.71875 174.855469 C 87.425781 173.914062 87.382812 173.648438 88.0625 172.722656 C 88.742188 171.796875 88.59375 171.503906 88.941406 171.265625 C 89.289062 171.027344 89.792969 172.007812 90.207031 172.363281 C 90.621094 172.722656 90.78125 173.675781 90.925781 174.007812 C 91.074219 174.339844 91.550781 174.367188 91.683594 174.417969 C 91.816406 174.472656 91.886719 174.644531 92.003906 174.921875 C 92.125 175.203125 92.617188 176.421875 92.882812 177.121094 C 93.148438 177.824219 93.867188 178.582031 95.292969 180.160156 C 96.71875 181.734375 98.78125 183.164062 99.914062 183.84375 C 101.042969 184.519531 102.734375 185.484375 102.9375 185.578125 C 103.136719 185.671875 103.375 185.898438 103.417969 186.054688 C 103.453125 186.214844 103.640625 186.730469 104.066406 187.273438 C 104.492188 187.820312 105.625 188.351562 106.34375 188.785156 C 107.0625 189.226562 107.316406 189.78125 107.4375 190.324219 C 107.554688 190.867188 107.367188 191.265625 107.289062 191.425781 C 107.210938 191.582031 107.582031 191.742188 107.582031 191.742188 C 107.582031 191.742188 107.636719 192.035156 107.902344 192.058594 C 108.167969 192.085938 108.433594 191.714844 108.570312 191.542969 C 108.699219 191.371094 109.023438 190.867188 109.339844 190.390625 C 109.660156 189.914062 109.859375 189.304688 110.03125 188.785156 C 110.207031 188.269531 109.886719 187.6875 109.21875 186.8125 C 108.554688 185.9375 108.421875 185.765625 107.277344 185.179688 C 106.132812 184.597656 105.171875 183.960938 104.800781 183.65625 C 104.425781 183.351562 103.371094 182.273438 102.609375 181.710938 C 101.84375 181.144531 100.191406 178.722656 99.324219 177.328125 C 98.453125 175.929688 97.652344 175.207031 97.265625 174.871094 C 96.875 174.53125 96.695312 173.792969 96.695312 173.792969 C 96.695312 173.792969 96.695312 173.792969 97.050781 173.441406 C 97.40625 173.082031 96.996094 172.835938 96.800781 172.164062 C 96.605469 171.496094 96.5 170.308594 96.359375 168.738281 C 96.214844 167.164062 95.878906 165.183594 95.59375 163.964844 C 95.3125 162.746094 94.601562 161.917969 94.121094 161.011719 C 93.640625 160.113281 92.238281 159.175781 91.722656 158.628906 C 91.210938 158.082031 89.453125 156.261719 89.382812 156.136719 C 89.3125 156.011719 89.46875 155.835938 89.523438 155.710938 C 89.578125 155.589844 89.828125 154.953125 90.003906 154.6875 C 90.179688 154.421875 90.730469 153.734375 91.015625 153.257812 C 91.296875 152.777344 91.476562 151.1875 91.636719 151.242188 C 91.796875 151.296875 91.972656 150.90625 92.082031 150.535156 C 92.1875 150.164062 92.363281 149.722656 92.347656 149.121094 C 92.328125 148.519531 92.042969 148.769531 92.117188 148.574219 C 92.1875 148.378906 92.433594 147.882812 92.453125 147.316406 C 92.46875 146.753906 92.488281 146.3125 92.523438 145.78125 C 92.558594 145.25 92.378906 144.171875 92.0625 143.679688 C 91.742188 143.183594 91.171875 142.441406 90.695312 142.160156 C 90.214844 141.875 88.78125 141.007812 87.941406 141.007812 C 87.109375 141.007812 86.347656 141.273438 85.511719 141.382812 C 84.675781 141.484375 84.039062 142.175781 83.734375 142.460938 C 83.433594 142.742188 82.882812 142.953125 82.617188 143.414062 C 82.351562 143.871094 82.367188 143.996094 82.066406 145.019531 C 81.765625 146.046875 82.085938 146.824219 82.085938 146.929688 C 82.085938 147.035156 82.261719 147.496094 82.175781 147.496094 C 82.085938 147.496094 81.925781 147.832031 81.890625 148.238281 C 81.855469 148.644531 82.085938 149.472656 82.101562 149.828125 C 82.121094 150.183594 82.191406 150.660156 82.476562 150.871094 C 82.761719 151.082031 82.761719 151.117188 82.777344 151.4375 C 82.792969 151.753906 82.617188 152.988281 82.617188 152.988281 C 82.378906 152.890625 79.582031 154.257812 78.609375 154.539062 C 77.636719 154.816406 76.957031 155.4375 74.789062 156.339844 C 72.617188 157.242188 73.175781 157.53125 71.5 159.375 C 69.820312 161.21875 70.101562 162.304688 69.6875 163.074219 C 69.277344 163.839844 68.105469 166.070312 67.746094 166.746094 C 67.386719 167.421875 66.855469 168.109375 66.792969 168.574219 C 66.734375 169.039062 66.667969 169.050781 66.402344 169.421875 C 66.132812 169.792969 65.1875 171.027344 64.988281 171.292969 C 64.789062 171.558594 64.617188 172.164062 64.5625 172.933594 C 64.511719 173.703125 64.46875 178.144531 64.640625 179.585938 C 64.816406 181.03125 65.121094 185.179688 65.109375 185.992188 C 65.097656 186.800781 64.882812 187.355469 64.671875 187.898438 C 64.457031 188.441406 64.285156 189.371094 64.363281 190.21875 C 64.445312 191.066406 64.855469 191.4375 64.953125 191.597656 C 65.050781 191.757812 65.230469 191.941406 65.449219 192.054688 C 65.671875 192.171875 65.664062 192.65625 65.6875 192.78125 C 65.71875 192.90625 65.824219 193.035156 66.265625 192.949219 C 66.710938 192.859375 66.363281 193.285156 66.417969 193.433594 C 66.472656 193.585938 66.199219 194.273438 66.160156 194.671875 C 66.121094 195.070312 65.960938 195.121094 65.335938 195.652344 C 64.710938 196.183594 65.269531 196.25 65.589844 196.671875 C 65.90625 197.097656 66.855469 198.355469 67.570312 198.847656 C 68.292969 199.335938 68.597656 199.574219 69.875 200.050781 C 71.152344 200.53125 70.902344 200.382812 70.914062 200.449219 C 70.925781 200.515625 71.113281 200.96875 71.578125 201.722656 C 72.046875 202.476562 72.484375 203.84375 72.65625 204.746094 C 72.832031 205.644531 72.3125 206.519531 71.699219 206.867188 C 71.085938 207.210938 70.792969 206.90625 68.808594 207.078125 C 66.828125 207.25 64.734375 208.722656 64.242188 208.984375 C 63.75 209.25 63.871094 209.011719 63.789062 209.011719 C 63.710938 209.011719 63.003906 209.371094 62.207031 209.847656 C 61.40625 210.324219 59.105469 211.28125 58.117188 211.769531 C 57.132812 212.261719 56.855469 212.089844 56.789062 211.902344 C 56.71875 211.714844 55.695312 211.875 55.226562 211.875 C 54.761719 211.875 54.484375 211.941406 53.804688 211.929688 C 53.125 211.917969 52.21875 212.128906 51.78125 212.9375 C 51.339844 213.746094 51.714844 215.96875 52.019531 216.898438 Z M 71.363281 173.351562 C 71.097656 174.003906 70.972656 174.675781 70.722656 175.453125 C 70.476562 176.230469 70.261719 176.886719 69.78125 177.398438 C 69.304688 177.910156 69.230469 178.035156 69.125 178.316406 C 69.019531 178.597656 68.785156 178.898438 68.859375 178.316406 C 68.859375 178.316406 69.144531 176.175781 69.230469 175.03125 C 69.320312 173.878906 69.695312 172.429688 69.976562 172.203125 C 70.261719 171.972656 70.757812 171.796875 70.757812 171.796875 C 70.757812 171.796875 70.933594 172.164062 71.078125 172.414062 C 71.222656 172.660156 71.628906 172.695312 71.363281 173.351562 " fill-opacity="1" fill-rule="nonzero"/></g><g fill="#000000" fill-opacity="1"><g transform="translate(126.113717, 180.206274)"><g><path d="M 13.390625 -9.8125 C 14.140625 -9.363281 14.710938 -8.789062 15.109375 -8.09375 C 15.503906 -7.394531 15.703125 -6.585938 15.703125 -5.671875 C 15.703125 -4.816406 15.492188 -4.015625 15.078125 -3.265625 C 14.671875 -2.523438 14.09375 -1.867188 13.34375 -1.296875 C 12.65625 -0.773438 11.875 -0.375 11 -0.09375 C 10.132812 0.1875 9.21875 0.332031 8.25 0.34375 C 7.28125 0.34375 6.359375 0.210938 5.484375 -0.046875 C 4.609375 -0.316406 3.828125 -0.722656 3.140625 -1.265625 C 2.117188 -2.035156 1.421875 -2.96875 1.046875 -4.0625 L 4.8125 -5.8125 C 4.8125 -5.632812 4.875 -5.410156 5 -5.140625 C 5.125 -4.867188 5.320312 -4.609375 5.59375 -4.359375 C 5.863281 -4.109375 6.210938 -3.890625 6.640625 -3.703125 C 7.066406 -3.523438 7.597656 -3.4375 8.234375 -3.4375 C 8.734375 -3.4375 9.175781 -3.5 9.5625 -3.625 C 9.945312 -3.75 10.269531 -3.90625 10.53125 -4.09375 C 10.789062 -4.289062 10.988281 -4.507812 11.125 -4.75 C 11.257812 -4.988281 11.328125 -5.234375 11.328125 -5.484375 C 11.328125 -5.773438 11.226562 -6.046875 11.03125 -6.296875 C 10.84375 -6.546875 10.554688 -6.742188 10.171875 -6.890625 C 9.453125 -7.140625 8.691406 -7.347656 7.890625 -7.515625 C 7.097656 -7.679688 6.320312 -7.894531 5.5625 -8.15625 C 4.8125 -8.414062 4.113281 -8.757812 3.46875 -9.1875 C 2.820312 -9.625 2.3125 -10.226562 1.9375 -11 C 1.59375 -11.675781 1.421875 -12.398438 1.421875 -13.171875 C 1.421875 -14.035156 1.625 -14.867188 2.03125 -15.671875 C 2.4375 -16.484375 2.988281 -17.164062 3.6875 -17.71875 C 4.34375 -18.238281 5.082031 -18.632812 5.90625 -18.90625 C 6.738281 -19.1875 7.613281 -19.328125 8.53125 -19.328125 C 9.4375 -19.328125 10.304688 -19.191406 11.140625 -18.921875 C 11.972656 -18.660156 12.722656 -18.269531 13.390625 -17.75 C 14.035156 -17.257812 14.546875 -16.691406 14.921875 -16.046875 L 11.859375 -13.953125 C 11.484375 -14.472656 11.007812 -14.890625 10.4375 -15.203125 C 9.875 -15.515625 9.242188 -15.671875 8.546875 -15.671875 C 7.578125 -15.671875 6.828125 -15.457031 6.296875 -15.03125 C 5.773438 -14.601562 5.515625 -14.039062 5.515625 -13.34375 C 5.515625 -13.019531 5.660156 -12.726562 5.953125 -12.46875 C 6.253906 -12.21875 6.640625 -11.992188 7.109375 -11.796875 C 7.585938 -11.609375 8.117188 -11.4375 8.703125 -11.28125 C 9.296875 -11.125 9.882812 -10.96875 10.46875 -10.8125 C 11.050781 -10.664062 11.601562 -10.507812 12.125 -10.34375 C 12.644531 -10.1875 13.066406 -10.007812 13.390625 -9.8125 Z M 13.390625 -9.8125 "/></g></g></g><g fill="#000000" fill-opacity="1"><g transform="translate(142.670582, 180.206274)"><g><path d="M 12.046875 -19.0625 L 16.109375 -19.0625 L 16.109375 -6.890625 C 16.109375 -5.929688 15.910156 -5.015625 15.515625 -4.140625 C 15.117188 -3.265625 14.578125 -2.492188 13.890625 -1.828125 C 13.210938 -1.160156 12.421875 -0.628906 11.515625 -0.234375 C 10.617188 0.148438 9.648438 0.34375 8.609375 0.34375 C 7.585938 0.34375 6.617188 0.148438 5.703125 -0.234375 C 4.785156 -0.628906 3.988281 -1.160156 3.3125 -1.828125 C 2.644531 -2.492188 2.113281 -3.265625 1.71875 -4.140625 C 1.320312 -5.015625 1.125 -5.929688 1.125 -6.890625 L 1.125 -19.0625 L 5.1875 -19.0625 L 5.1875 -7.6875 C 5.1875 -7.15625 5.273438 -6.648438 5.453125 -6.171875 C 5.640625 -5.691406 5.882812 -5.269531 6.1875 -4.90625 C 6.488281 -4.539062 6.847656 -4.25 7.265625 -4.03125 C 7.691406 -3.8125 8.140625 -3.703125 8.609375 -3.703125 C 9.085938 -3.703125 9.53125 -3.8125 9.9375 -4.03125 C 10.351562 -4.25 10.71875 -4.539062 11.03125 -4.90625 C 11.351562 -5.269531 11.601562 -5.691406 11.78125 -6.171875 C 11.957031 -6.648438 12.046875 -7.15625 12.046875 -7.6875 Z M 12.046875 -19.0625 "/></g></g></g><g fill="#000000" fill-opacity="1"><g transform="translate(159.87252, 180.206274)"><g><path d="M 14.984375 -13.390625 C 14.984375 -12.785156 14.894531 -12.207031 14.71875 -11.65625 C 14.550781 -11.113281 14.3125 -10.613281 14 -10.15625 C 13.695312 -9.695312 13.332031 -9.289062 12.90625 -8.9375 C 12.476562 -8.59375 12.015625 -8.3125 11.515625 -8.09375 L 17.828125 0 L 13.0625 0 L 7.1875 -7.6875 L 5.34375 -7.6875 L 5.34375 0 L 1.265625 0 L 1.265625 -19.0625 L 9.5 -19.0625 C 10.25 -19.0625 10.957031 -18.910156 11.625 -18.609375 C 12.300781 -18.316406 12.882812 -17.914062 13.375 -17.40625 C 13.875 -16.894531 14.265625 -16.296875 14.546875 -15.609375 C 14.835938 -14.921875 14.984375 -14.179688 14.984375 -13.390625 Z M 8.984375 -11.40625 C 9.503906 -11.40625 9.953125 -11.597656 10.328125 -11.984375 C 10.703125 -12.367188 10.890625 -12.835938 10.890625 -13.390625 C 10.890625 -13.929688 10.703125 -14.394531 10.328125 -14.78125 C 9.953125 -15.164062 9.503906 -15.359375 8.984375 -15.359375 L 5.34375 -15.359375 L 5.34375 -11.40625 Z M 8.984375 -11.40625 "/></g></g></g><g fill="#000000" fill-opacity="1"><g transform="translate(178.337725, 180.206274)"><g/></g></g><g fill="#000000" fill-opacity="1"><g transform="translate(185.729182, 180.206274)"><g><path d="M 5.34375 -3.6875 L 13.171875 -3.6875 L 13.171875 0 L 1.265625 0 L 1.265625 -19.0625 L 5.34375 -19.0625 Z M 5.34375 -3.6875 "/></g></g></g><g fill="#000000" fill-opacity="1"><g transform="translate(199.168197, 180.206274)"><g><path d="M 1.296875 -19.0625 L 13.203125 -19.0625 L 13.203125 -15.359375 L 5.375 -15.359375 L 5.375 -11.90625 L 12.265625 -11.90625 L 12.265625 -8.203125 L 5.375 -8.203125 L 5.375 -3.6875 L 13.203125 -3.6875 L 13.203125 0 L 1.296875 0 Z M 1.296875 -19.0625 "/></g></g></g><g fill="#000000" fill-opacity="1"><g transform="translate(213.655453, 180.206274)"><g/></g></g><g fill="#000000" fill-opacity="1"><g transform="translate(221.046911, 180.206274)"><g><path d="M 0.625 -19.0625 L 14.40625 -19.0625 L 14.40625 -15.359375 L 9.546875 -15.359375 L 9.546875 0 L 5.484375 0 L 5.484375 -15.359375 L 0.625 -15.359375 Z M 0.625 -19.0625 "/></g></g></g><g fill="#000000" fill-opacity="1"><g transform="translate(236.071729, 180.206274)"><g><path d="M 1.296875 -19.0625 L 13.203125 -19.0625 L 13.203125 -15.359375 L 5.375 -15.359375 L 5.375 -11.90625 L 12.265625 -11.90625 L 12.265625 -8.203125 L 5.375 -8.203125 L 5.375 -3.6875 L 13.203125 -3.6875 L 13.203125 0 L 1.296875 0 Z M 1.296875 -19.0625 "/></g></g></g><g fill="#000000" fill-opacity="1"><g transform="translate(250.558985, 180.206274)"><g><path d="M 14.984375 -13.390625 C 14.984375 -12.785156 14.894531 -12.207031 14.71875 -11.65625 C 14.550781 -11.113281 14.3125 -10.613281 14 -10.15625 C 13.695312 -9.695312 13.332031 -9.289062 12.90625 -8.9375 C 12.476562 -8.59375 12.015625 -8.3125 11.515625 -8.09375 L 17.828125 0 L 13.0625 0 L 7.1875 -7.6875 L 5.34375 -7.6875 L 5.34375 0 L 1.265625 0 L 1.265625 -19.0625 L 9.5 -19.0625 C 10.25 -19.0625 10.957031 -18.910156 11.625 -18.609375 C 12.300781 -18.316406 12.882812 -17.914062 13.375 -17.40625 C 13.875 -16.894531 14.265625 -16.296875 14.546875 -15.609375 C 14.835938 -14.921875 14.984375 -14.179688 14.984375 -13.390625 Z M 8.984375 -11.40625 C 9.503906 -11.40625 9.953125 -11.597656 10.328125 -11.984375 C 10.703125 -12.367188 10.890625 -12.835938 10.890625 -13.390625 C 10.890625 -13.929688 10.703125 -14.394531 10.328125 -14.78125 C 9.953125 -15.164062 9.503906 -15.359375 8.984375 -15.359375 L 5.34375 -15.359375 L 5.34375 -11.40625 Z M 8.984375 -11.40625 "/></g></g></g><g fill="#000000" fill-opacity="1"><g transform="translate(269.024191, 180.206274)"><g><path d="M 14.984375 -13.390625 C 14.984375 -12.785156 14.894531 -12.207031 14.71875 -11.65625 C 14.550781 -11.113281 14.3125 -10.613281 14 -10.15625 C 13.695312 -9.695312 13.332031 -9.289062 12.90625 -8.9375 C 12.476562 -8.59375 12.015625 -8.3125 11.515625 -8.09375 L 17.828125 0 L 13.0625 0 L 7.1875 -7.6875 L 5.34375 -7.6875 L 5.34375 0 L 1.265625 0 L 1.265625 -19.0625 L 9.5 -19.0625 C 10.25 -19.0625 10.957031 -18.910156 11.625 -18.609375 C 12.300781 -18.316406 12.882812 -17.914062 13.375 -17.40625 C 13.875 -16.894531 14.265625 -16.296875 14.546875 -15.609375 C 14.835938 -14.921875 14.984375 -14.179688 14.984375 -13.390625 Z M 8.984375 -11.40625 C 9.503906 -11.40625 9.953125 -11.597656 10.328125 -11.984375 C 10.703125 -12.367188 10.890625 -12.835938 10.890625 -13.390625 C 10.890625 -13.929688 10.703125 -14.394531 10.328125 -14.78125 C 9.953125 -15.164062 9.503906 -15.359375 8.984375 -15.359375 L 5.34375 -15.359375 L 5.34375 -11.40625 Z M 8.984375 -11.40625 "/></g></g></g><g fill="#000000" fill-opacity="1"><g transform="translate(287.489396, 180.206274)"><g><path d="M 12.984375 -19.0625 L 20.953125 0 L 16.53125 0 L 14.8125 -4.09375 L 6.71875 -4.09375 L 5.03125 0 L 0.59375 0 L 8.546875 -19.0625 Z M 13.28125 -7.796875 L 10.78125 -13.796875 L 8.28125 -7.796875 Z M 13.28125 -7.796875 "/></g></g></g><g fill="#000000" fill-opacity="1"><g transform="translate(309.018696, 180.206274)"><g><path d="M 8.203125 -19.0625 L 8.203125 -15.625 L 6.78125 -15.625 L 6.78125 -3.421875 L 8.203125 -3.421875 L 8.203125 0 L 1.265625 0 L 1.265625 -3.421875 L 2.6875 -3.421875 L 2.6875 -15.625 L 1.265625 -15.625 L 1.265625 -19.0625 Z M 8.203125 -19.0625 "/></g></g></g><g fill="#000000" fill-opacity="1"><g transform="translate(318.452883, 180.206274)"><g><path d="M 14.3125 -19.0625 L 18.359375 -19.0625 L 18.359375 0 L 14.5 0 L 5.328125 -12.453125 L 5.328125 0 L 1.265625 0 L 1.265625 -19.0625 L 5.078125 -19.0625 L 14.3125 -6.53125 Z M 14.3125 -19.0625 "/></g></g></g><g fill="#000000" fill-opacity="1"><g transform="translate(177.01044, 210.098857)"><g><path d="M 0.65625 -9.9375 L 6.875 -9.9375 L 6.875 -8 L 2.796875 -8 L 2.796875 -6.203125 L 6.375 -6.203125 L 6.375 -4.28125 L 2.796875 -4.28125 L 2.796875 0 L 0.65625 0 Z M 0.65625 -9.9375 "/></g></g></g><g fill="#000000" fill-opacity="1"><g transform="translate(184.051889, 210.098857)"><g><path d="M 5.359375 -10.078125 C 6.023438 -10.078125 6.65625 -9.941406 7.25 -9.671875 C 7.851562 -9.398438 8.375 -9.03125 8.8125 -8.5625 C 9.257812 -8.09375 9.613281 -7.550781 9.875 -6.9375 C 10.132812 -6.320312 10.265625 -5.664062 10.265625 -4.96875 C 10.265625 -4.269531 10.132812 -3.609375 9.875 -2.984375 C 9.613281 -2.359375 9.257812 -1.8125 8.8125 -1.34375 C 8.375 -0.875 7.851562 -0.5 7.25 -0.21875 C 6.65625 0.0507812 6.023438 0.1875 5.359375 0.1875 C 4.679688 0.1875 4.039062 0.0507812 3.4375 -0.21875 C 2.84375 -0.5 2.328125 -0.875 1.890625 -1.34375 C 1.453125 -1.8125 1.101562 -2.359375 0.84375 -2.984375 C 0.59375 -3.609375 0.46875 -4.269531 0.46875 -4.96875 C 0.46875 -5.664062 0.59375 -6.320312 0.84375 -6.9375 C 1.101562 -7.550781 1.453125 -8.09375 1.890625 -8.5625 C 2.328125 -9.03125 2.84375 -9.398438 3.4375 -9.671875 C 4.039062 -9.941406 4.679688 -10.078125 5.359375 -10.078125 Z M 5.359375 -1.9375 C 5.734375 -1.9375 6.085938 -2.015625 6.421875 -2.171875 C 6.765625 -2.328125 7.0625 -2.539062 7.3125 -2.8125 C 7.5625 -3.09375 7.757812 -3.414062 7.90625 -3.78125 C 8.050781 -4.144531 8.125 -4.539062 8.125 -4.96875 C 8.125 -5.382812 8.050781 -5.773438 7.90625 -6.140625 C 7.757812 -6.515625 7.5625 -6.835938 7.3125 -7.109375 C 7.0625 -7.390625 6.765625 -7.609375 6.421875 -7.765625 C 6.085938 -7.921875 5.734375 -8 5.359375 -8 C 4.972656 -8 4.609375 -7.921875 4.265625 -7.765625 C 3.929688 -7.609375 3.640625 -7.390625 3.390625 -7.109375 C 3.140625 -6.835938 2.941406 -6.515625 2.796875 -6.140625 C 2.648438 -5.773438 2.578125 -5.382812 2.578125 -4.96875 C 2.578125 -4.539062 2.648438 -4.144531 2.796875 -3.78125 C 2.941406 -3.414062 3.140625 -3.09375 3.390625 -2.8125 C 3.640625 -2.539062 3.929688 -2.328125 4.265625 -2.171875 C 4.609375 -2.015625 4.972656 -1.9375 5.359375 -1.9375 Z M 5.359375 -1.9375 "/></g></g></g><g fill="#000000" fill-opacity="1"><g transform="translate(194.761047, 210.098857)"><g><path d="M 5.359375 -10.078125 C 6.023438 -10.078125 6.65625 -9.941406 7.25 -9.671875 C 7.851562 -9.398438 8.375 -9.03125 8.8125 -8.5625 C 9.257812 -8.09375 9.613281 -7.550781 9.875 -6.9375 C 10.132812 -6.320312 10.265625 -5.664062 10.265625 -4.96875 C 10.265625 -4.269531 10.132812 -3.609375 9.875 -2.984375 C 9.613281 -2.359375 9.257812 -1.8125 8.8125 -1.34375 C 8.375 -0.875 7.851562 -0.5 7.25 -0.21875 C 6.65625 0.0507812 6.023438 0.1875 5.359375 0.1875 C 4.679688 0.1875 4.039062 0.0507812 3.4375 -0.21875 C 2.84375 -0.5 2.328125 -0.875 1.890625 -1.34375 C 1.453125 -1.8125 1.101562 -2.359375 0.84375 -2.984375 C 0.59375 -3.609375 0.46875 -4.269531 0.46875 -4.96875 C 0.46875 -5.664062 0.59375 -6.320312 0.84375 -6.9375 C 1.101562 -7.550781 1.453125 -8.09375 1.890625 -8.5625 C 2.328125 -9.03125 2.84375 -9.398438 3.4375 -9.671875 C 4.039062 -9.941406 4.679688 -10.078125 5.359375 -10.078125 Z M 5.359375 -1.9375 C 5.734375 -1.9375 6.085938 -2.015625 6.421875 -2.171875 C 6.765625 -2.328125 7.0625 -2.539062 7.3125 -2.8125 C 7.5625 -3.09375 7.757812 -3.414062 7.90625 -3.78125 C 8.050781 -4.144531 8.125 -4.539062 8.125 -4.96875 C 8.125 -5.382812 8.050781 -5.773438 7.90625 -6.140625 C 7.757812 -6.515625 7.5625 -6.835938 7.3125 -7.109375 C 7.0625 -7.390625 6.765625 -7.609375 6.421875 -7.765625 C 6.085938 -7.921875 5.734375 -8 5.359375 -8 C 4.972656 -8 4.609375 -7.921875 4.265625 -7.765625 C 3.929688 -7.609375 3.640625 -7.390625 3.390625 -7.109375 C 3.140625 -6.835938 2.941406 -6.515625 2.796875 -6.140625 C 2.648438 -5.773438 2.578125 -5.382812 2.578125 -4.96875 C 2.578125 -4.539062 2.648438 -4.144531 2.796875 -3.78125 C 2.941406 -3.414062 3.140625 -3.09375 3.390625 -2.8125 C 3.640625 -2.539062 3.929688 -2.328125 4.265625 -2.171875 C 4.609375 -2.015625 4.972656 -1.9375 5.359375 -1.9375 Z M 5.359375 -1.9375 "/></g></g></g><g fill="#000000" fill-opacity="1"><g transform="translate(205.470204, 210.098857)"><g><path d="M 0.328125 -9.9375 L 7.515625 -9.9375 L 7.515625 -8 L 4.96875 -8 L 4.96875 0 L 2.859375 0 L 2.859375 -8 L 0.328125 -8 Z M 0.328125 -9.9375 "/></g></g></g><g fill="#000000" fill-opacity="1"><g transform="translate(213.295588, 210.098857)"><g><path d="M 6.875 -5.40625 C 7.269531 -5.132812 7.582031 -4.785156 7.8125 -4.359375 C 8.050781 -3.941406 8.171875 -3.472656 8.171875 -2.953125 C 8.171875 -2.546875 8.085938 -2.160156 7.921875 -1.796875 C 7.765625 -1.441406 7.550781 -1.128906 7.28125 -0.859375 C 7.007812 -0.597656 6.691406 -0.390625 6.328125 -0.234375 C 5.972656 -0.078125 5.59375 0 5.1875 0 L 0.671875 0 L 0.671875 -9.9375 L 5.046875 -9.9375 C 5.421875 -9.9375 5.769531 -9.863281 6.09375 -9.71875 C 6.425781 -9.570312 6.710938 -9.378906 6.953125 -9.140625 C 7.203125 -8.898438 7.394531 -8.613281 7.53125 -8.28125 C 7.675781 -7.957031 7.75 -7.609375 7.75 -7.234375 C 7.75 -6.828125 7.671875 -6.472656 7.515625 -6.171875 C 7.359375 -5.867188 7.144531 -5.613281 6.875 -5.40625 Z M 2.796875 -6.203125 L 5.046875 -6.203125 C 5.296875 -6.203125 5.507812 -6.289062 5.6875 -6.46875 C 5.863281 -6.644531 5.953125 -6.863281 5.953125 -7.125 C 5.953125 -7.375 5.863281 -7.582031 5.6875 -7.75 C 5.507812 -7.914062 5.296875 -8 5.046875 -8 L 2.796875 -8 Z M 5.1875 -1.921875 C 5.46875 -1.921875 5.703125 -2.039062 5.890625 -2.28125 C 6.085938 -2.519531 6.1875 -2.796875 6.1875 -3.109375 C 6.1875 -3.441406 6.085938 -3.71875 5.890625 -3.9375 C 5.703125 -4.164062 5.46875 -4.28125 5.1875 -4.28125 L 2.796875 -4.28125 L 2.796875 -1.921875 Z M 5.1875 -1.921875 "/></g></g></g><g fill="#000000" fill-opacity="1"><g transform="translate(221.960905, 210.098857)"><g><path d="M 6.765625 -9.9375 L 10.921875 0 L 8.625 0 L 7.71875 -2.125 L 3.5 -2.125 L 2.625 0 L 0.3125 0 L 4.453125 -9.9375 Z M 6.921875 -4.0625 L 5.625 -7.1875 L 4.3125 -4.0625 Z M 6.921875 -4.0625 "/></g></g></g><g fill="#000000" fill-opacity="1"><g transform="translate(233.174025, 210.098857)"><g><path d="M 2.796875 -1.921875 L 6.875 -1.921875 L 6.875 0 L 0.65625 0 L 0.65625 -9.9375 L 2.796875 -9.9375 Z M 2.796875 -1.921875 "/></g></g></g><g fill="#000000" fill-opacity="1"><g transform="translate(240.173472, 210.098857)"><g><path d="M 2.796875 -1.921875 L 6.875 -1.921875 L 6.875 0 L 0.65625 0 L 0.65625 -9.9375 L 2.796875 -9.9375 Z M 2.796875 -1.921875 "/></g></g></g><g fill="#000000" fill-opacity="1"><g transform="translate(247.17292, 210.098857)"><g/></g></g><g fill="#000000" fill-opacity="1"><g transform="translate(251.022616, 210.098857)"><g><path d="M 6.875 -5.40625 C 7.269531 -5.132812 7.582031 -4.785156 7.8125 -4.359375 C 8.050781 -3.941406 8.171875 -3.472656 8.171875 -2.953125 C 8.171875 -2.546875 8.085938 -2.160156 7.921875 -1.796875 C 7.765625 -1.441406 7.550781 -1.128906 7.28125 -0.859375 C 7.007812 -0.597656 6.691406 -0.390625 6.328125 -0.234375 C 5.972656 -0.078125 5.59375 0 5.1875 0 L 0.671875 0 L 0.671875 -9.9375 L 5.046875 -9.9375 C 5.421875 -9.9375 5.769531 -9.863281 6.09375 -9.71875 C 6.425781 -9.570312 6.710938 -9.378906 6.953125 -9.140625 C 7.203125 -8.898438 7.394531 -8.613281 7.53125 -8.28125 C 7.675781 -7.957031 7.75 -7.609375 7.75 -7.234375 C 7.75 -6.828125 7.671875 -6.472656 7.515625 -6.171875 C 7.359375 -5.867188 7.144531 -5.613281 6.875 -5.40625 Z M 2.796875 -6.203125 L 5.046875 -6.203125 C 5.296875 -6.203125 5.507812 -6.289062 5.6875 -6.46875 C 5.863281 -6.644531 5.953125 -6.863281 5.953125 -7.125 C 5.953125 -7.375 5.863281 -7.582031 5.6875 -7.75 C 5.507812 -7.914062 5.296875 -8 5.046875 -8 L 2.796875 -8 Z M 5.1875 -1.921875 C 5.46875 -1.921875 5.703125 -2.039062 5.890625 -2.28125 C 6.085938 -2.519531 6.1875 -2.796875 6.1875 -3.109375 C 6.1875 -3.441406 6.085938 -3.71875 5.890625 -3.9375 C 5.703125 -4.164062 5.46875 -4.28125 5.1875 -4.28125 L 2.796875 -4.28125 L 2.796875 -1.921875 Z M 5.1875 -1.921875 "/></g></g></g><g fill="#000000" fill-opacity="1"><g transform="translate(259.687933, 210.098857)"><g><path d="M 2.796875 -1.921875 L 6.875 -1.921875 L 6.875 0 L 0.65625 0 L 0.65625 -9.9375 L 2.796875 -9.9375 Z M 2.796875 -1.921875 "/></g></g></g><g fill="#000000" fill-opacity="1"><g transform="translate(266.68738, 210.098857)"><g><path d="M 5.359375 -10.078125 C 6.023438 -10.078125 6.65625 -9.941406 7.25 -9.671875 C 7.851562 -9.398438 8.375 -9.03125 8.8125 -8.5625 C 9.257812 -8.09375 9.613281 -7.550781 9.875 -6.9375 C 10.132812 -6.320312 10.265625 -5.664062 10.265625 -4.96875 C 10.265625 -4.269531 10.132812 -3.609375 9.875 -2.984375 C 9.613281 -2.359375 9.257812 -1.8125 8.8125 -1.34375 C 8.375 -0.875 7.851562 -0.5 7.25 -0.21875 C 6.65625 0.0507812 6.023438 0.1875 5.359375 0.1875 C 4.679688 0.1875 4.039062 0.0507812 3.4375 -0.21875 C 2.84375 -0.5 2.328125 -0.875 1.890625 -1.34375 C 1.453125 -1.8125 1.101562 -2.359375 0.84375 -2.984375 C 0.59375 -3.609375 0.46875 -4.269531 0.46875 -4.96875 C 0.46875 -5.664062 0.59375 -6.320312 0.84375 -6.9375 C 1.101562 -7.550781 1.453125 -8.09375 1.890625 -8.5625 C 2.328125 -9.03125 2.84375 -9.398438 3.4375 -9.671875 C 4.039062 -9.941406 4.679688 -10.078125 5.359375 -10.078125 Z M 5.359375 -1.9375 C 5.734375 -1.9375 6.085938 -2.015625 6.421875 -2.171875 C 6.765625 -2.328125 7.0625 -2.539062 7.3125 -2.8125 C 7.5625 -3.09375 7.757812 -3.414062 7.90625 -3.78125 C 8.050781 -4.144531 8.125 -4.539062 8.125 -4.96875 C 8.125 -5.382812 8.050781 -5.773438 7.90625 -6.140625 C 7.757812 -6.515625 7.5625 -6.835938 7.3125 -7.109375 C 7.0625 -7.390625 6.765625 -7.609375 6.421875 -7.765625 C 6.085938 -7.921875 5.734375 -8 5.359375 -8 C 4.972656 -8 4.609375 -7.921875 4.265625 -7.765625 C 3.929688 -7.609375 3.640625 -7.390625 3.390625 -7.109375 C 3.140625 -6.835938 2.941406 -6.515625 2.796875 -6.140625 C 2.648438 -5.773438 2.578125 -5.382812 2.578125 -4.96875 C 2.578125 -4.539062 2.648438 -4.144531 2.796875 -3.78125 C 2.941406 -3.414062 3.140625 -3.09375 3.390625 -2.8125 C 3.640625 -2.539062 3.929688 -2.328125 4.265625 -2.171875 C 4.609375 -2.015625 4.972656 -1.9375 5.359375 -1.9375 Z M 5.359375 -1.9375 "/></g></g></g><g fill="#000000" fill-opacity="1"><g transform="translate(277.396538, 210.098857)"><g><path d="M 5.578125 -5.625 L 9.328125 -5.625 L 9.328125 -1.96875 C 8.773438 -1.257812 8.15625 -0.722656 7.46875 -0.359375 C 6.789062 0.00390625 6.078125 0.1875 5.328125 0.1875 C 4.648438 0.1875 4.007812 0.0507812 3.40625 -0.21875 C 2.8125 -0.5 2.296875 -0.875 1.859375 -1.34375 C 1.421875 -1.8125 1.070312 -2.351562 0.8125 -2.96875 C 0.5625 -3.59375 0.4375 -4.257812 0.4375 -4.96875 C 0.4375 -5.664062 0.5625 -6.320312 0.8125 -6.9375 C 1.070312 -7.550781 1.421875 -8.09375 1.859375 -8.5625 C 2.296875 -9.03125 2.8125 -9.398438 3.40625 -9.671875 C 4.007812 -9.941406 4.648438 -10.078125 5.328125 -10.078125 C 5.960938 -10.078125 6.5625 -9.957031 7.125 -9.71875 C 7.6875 -9.488281 8.238281 -9.101562 8.78125 -8.5625 L 7.546875 -7.0625 C 7.148438 -7.425781 6.78125 -7.671875 6.4375 -7.796875 C 6.09375 -7.921875 5.726562 -7.984375 5.34375 -7.984375 C 4.945312 -7.984375 4.578125 -7.90625 4.234375 -7.75 C 3.898438 -7.59375 3.601562 -7.378906 3.34375 -7.109375 C 3.09375 -6.835938 2.894531 -6.515625 2.75 -6.140625 C 2.601562 -5.773438 2.53125 -5.382812 2.53125 -4.96875 C 2.53125 -4.539062 2.601562 -4.144531 2.75 -3.78125 C 2.894531 -3.414062 3.09375 -3.09375 3.34375 -2.8125 C 3.601562 -2.539062 3.898438 -2.328125 4.234375 -2.171875 C 4.578125 -2.015625 4.945312 -1.9375 5.34375 -1.9375 C 5.6875 -1.9375 6.023438 -2 6.359375 -2.125 C 6.703125 -2.25 7.050781 -2.457031 7.40625 -2.75 L 7.40625 -3.828125 L 5.578125 -3.828125 Z M 5.578125 -5.625 "/></g></g></g></svg>